# xmcd CD database file
#
# Track frame offsets:
#	150
#	18074
#	43782
#	64370
#	83308
#	104748
#	126700
#	145037
#	165282
#	185642
#	206918
#	226758
#	250128
#	271145
#
# Disc length: 3881 seconds
#
# Revision: 1
# Processed by: cddbd v1.5.2PL0 Copyright (c) Steve Scherf et al.
# Submitted via: jetAudio 7
#
DISCID=bf0f270e
DTITLE=鄭世傑  - 淸揚雙簧管 後來
DYEAR=1900
DGENRE=장르 없음
TTITLE0=河滨公园
TTITLE1=後來
TTITLE2=我愛的人
TTITLE3=你的眼神
TTITLE4=太委屈
TTITLE5=獨角戲
TTITLE6=越吻越傷心
TTITLE7=掌心
TTITLE8=每次都想呼喊你的名字
TTITLE9=慢慢的陪着你走
TTITLE10=我祈禱
TTITLE11=原來的我
TTITLE12=雨蝶
TTITLE13=愛情的故事
EXTD=
EXTT0=
EXTT1=
EXTT2=
EXTT3=
EXTT4=
EXTT5=
EXTT6=
EXTT7=
EXTT8=
EXTT9=
EXTT10=
EXTT11=
EXTT12=
EXTT13=
PLAYORDER=
